<?xml version="1.0" encoding="UTF-8"?>
<svg xmlns="http://www.w3.org/2000/svg" xmlns:xlink="http://www.w3.org/1999/xlink" width="266.8pt" height="360.6pt" viewBox="0 0 266.8 360.6" version="1.1">
<defs>
<clipPath id="clip1">
  <path d="M 4 279 L 85 279 L 85 360.601563 L 4 360.601563 Z M 4 279 "/>
</clipPath>
<clipPath id="clip2">
  <path d="M 1 276 L 88 276 L 88 360.601563 L 1 360.601563 Z M 1 276 "/>
</clipPath>
<clipPath id="clip3">
  <path d="M 185 4 L 266.800781 4 L 266.800781 85 L 185 85 Z M 185 4 "/>
</clipPath>
<clipPath id="clip4">
  <path d="M 182 0 L 266.800781 0 L 266.800781 89 L 182 89 Z M 182 0 "/>
</clipPath>
<clipPath id="clip5">
  <path d="M 93 279 L 175 279 L 175 360.601563 L 93 360.601563 Z M 93 279 "/>
</clipPath>
<clipPath id="clip6">
  <path d="M 90 276 L 179 276 L 179 360.601563 L 90 360.601563 Z M 90 276 "/>
</clipPath>
<clipPath id="clip7">
  <path d="M 185 188 L 266.800781 188 L 266.800781 270 L 185 270 Z M 185 188 "/>
</clipPath>
<clipPath id="clip8">
  <path d="M 181 185 L 266.800781 185 L 266.800781 273 L 181 273 Z M 181 185 "/>
</clipPath>
</defs>
<g id="surface1">
<path style="fill-rule:evenodd;fill:rgb(89.0625%,0%,8.616638%);fill-opacity:1;stroke-width:5.669;stroke-linecap:butt;stroke-linejoin:miter;stroke:rgb(89.0625%,0%,8.616638%);stroke-opacity:1;stroke-miterlimit:4;" d="M 444.492188 3604.164063 C 688.164063 3604.164063 885.742188 3405.726563 885.742188 3160.921875 C 885.742188 2916.117188 688.164063 2717.640625 444.492188 2717.640625 C 200.820313 2717.640625 3.242188 2916.117188 3.242188 3160.921875 C 3.242188 3405.726563 200.820313 3604.164063 444.492188 3604.164063 Z M 444.492188 3604.164063 " transform="matrix(0.1,0,0,-0.1,0,360.6)"/>
<path style="fill-rule:evenodd;fill:rgb(69.334412%,78.90625%,0%);fill-opacity:1;stroke-width:5.669;stroke-linecap:butt;stroke-linejoin:miter;stroke:rgb(69.334412%,78.90625%,0%);stroke-opacity:1;stroke-miterlimit:4;" d="M 966.40625 3460.53125 L 966.40625 2861.3125 C 966.40625 2791.117188 996.679688 2756.039063 1057.1875 2756.039063 L 1669.804688 2756.039063 C 1730.3125 2756.039063 1760.585938 2791.117188 1760.585938 2861.3125 L 1760.585938 3460.53125 C 1760.585938 3530.726563 1730.3125 3565.804688 1669.804688 3565.804688 L 1057.1875 3565.804688 C 996.679688 3565.804688 966.40625 3530.726563 966.40625 3460.53125 Z M 966.40625 3460.53125 " transform="matrix(0.1,0,0,-0.1,0,360.6)"/>
<path style="fill-rule:evenodd;fill:rgb(69.334412%,78.90625%,0%);fill-opacity:1;stroke-width:5.669;stroke-linecap:butt;stroke-linejoin:miter;stroke:rgb(69.334412%,78.90625%,0%);stroke-opacity:1;stroke-miterlimit:4;" d="M 32.929688 2543.265625 L 32.929688 1944.007813 C 32.929688 1873.851563 63.203125 1838.773438 123.710938 1838.773438 L 736.367188 1838.773438 C 796.875 1838.773438 827.109375 1873.851563 827.109375 1944.007813 L 827.109375 2543.265625 C 827.109375 2613.421875 796.875 2648.539063 736.367188 2648.539063 L 123.710938 2648.539063 C 63.203125 2648.539063 32.929688 2613.421875 32.929688 2543.265625 Z M 32.929688 2543.265625 " transform="matrix(0.1,0,0,-0.1,0,360.6)"/>
<g clip-path="url(#clip1)" clip-rule="nonzero">
<path style=" stroke:none;fill-rule:evenodd;fill:rgb(69.334412%,78.90625%,0%);fill-opacity:1;" d="M 4.871094 289.820313 L 4.871094 349.746094 C 4.871094 356.761719 7.898438 360.273438 13.949219 360.273438 L 75.210938 360.273438 C 81.261719 360.273438 84.289063 356.761719 84.289063 349.746094 L 84.289063 289.820313 C 84.289063 282.804688 81.261719 279.296875 75.210938 279.296875 L 13.949219 279.296875 C 7.898438 279.296875 4.871094 282.804688 4.871094 289.820313 Z M 4.871094 289.820313 "/>
</g>
<g clip-path="url(#clip2)" clip-rule="nonzero">
<path style="fill:none;stroke-width:5.669;stroke-linecap:butt;stroke-linejoin:miter;stroke:rgb(69.334412%,78.90625%,0%);stroke-opacity:1;stroke-miterlimit:4;" d="M 48.710938 707.796875 L 48.710938 108.539063 C 48.710938 38.382813 78.984375 3.265625 139.492188 3.265625 L 752.109375 3.265625 C 812.617188 3.265625 842.890625 38.382813 842.890625 108.539063 L 842.890625 707.796875 C 842.890625 777.953125 812.617188 813.03125 752.109375 813.03125 L 139.492188 813.03125 C 78.984375 813.03125 48.710938 777.953125 48.710938 707.796875 Z M 48.710938 707.796875 " transform="matrix(0.1,0,0,-0.1,0,360.6)"/>
</g>
<path style="fill-rule:evenodd;fill:rgb(69.334412%,78.90625%,0%);fill-opacity:1;stroke-width:5.669;stroke-linecap:butt;stroke-linejoin:miter;stroke:rgb(69.334412%,78.90625%,0%);stroke-opacity:1;stroke-miterlimit:4;" d="M 47.148438 1613.890625 L 47.148438 1014.671875 C 47.148438 944.515625 77.382813 909.4375 137.929688 909.4375 L 750.546875 909.4375 C 811.054688 909.4375 841.328125 944.515625 841.328125 1014.671875 L 841.328125 1613.890625 C 841.328125 1684.085938 811.054688 1719.164063 750.546875 1719.164063 L 137.929688 1719.164063 C 77.382813 1719.164063 47.148438 1684.085938 47.148438 1613.890625 Z M 47.148438 1613.890625 " transform="matrix(0.1,0,0,-0.1,0,360.6)"/>
<g clip-path="url(#clip3)" clip-rule="nonzero">
<path style=" stroke:none;fill-rule:evenodd;fill:rgb(69.334412%,78.90625%,0%);fill-opacity:1;" d="M 185.363281 14.546875 L 185.363281 74.46875 C 185.363281 81.488281 188.457031 84.996094 194.648438 84.996094 L 257.292969 84.996094 C 263.480469 84.996094 266.574219 81.488281 266.574219 74.46875 L 266.574219 14.546875 C 266.574219 7.527344 263.480469 4.019531 257.292969 4.019531 L 194.648438 4.019531 C 188.457031 4.019531 185.363281 7.527344 185.363281 14.546875 Z M 185.363281 14.546875 "/>
</g>
<g clip-path="url(#clip4)" clip-rule="nonzero">
<path style="fill:none;stroke-width:5.669;stroke-linecap:butt;stroke-linejoin:miter;stroke:rgb(69.334412%,78.90625%,0%);stroke-opacity:1;stroke-miterlimit:4;" d="M 1853.632813 3460.53125 L 1853.632813 2861.3125 C 1853.632813 2791.117188 1884.570313 2756.039063 1946.484375 2756.039063 L 2572.929688 2756.039063 C 2634.804688 2756.039063 2665.742188 2791.117188 2665.742188 2861.3125 L 2665.742188 3460.53125 C 2665.742188 3530.726563 2634.804688 3565.804688 2572.929688 3565.804688 L 1946.484375 3565.804688 C 1884.570313 3565.804688 1853.632813 3530.726563 1853.632813 3460.53125 Z M 1853.632813 3460.53125 " transform="matrix(0.1,0,0,-0.1,0,360.6)"/>
</g>
<path style="fill-rule:evenodd;fill:rgb(69.334412%,78.90625%,0%);fill-opacity:1;stroke-width:5.669;stroke-linecap:butt;stroke-linejoin:miter;stroke:rgb(69.334412%,78.90625%,0%);stroke-opacity:1;stroke-miterlimit:4;" d="M 920.195313 2543.265625 L 920.195313 1944.007813 C 920.195313 1873.851563 951.132813 1838.773438 1013.007813 1838.773438 L 1639.453125 1838.773438 C 1701.367188 1838.773438 1732.304688 1873.851563 1732.304688 1944.007813 L 1732.304688 2543.265625 C 1732.304688 2613.421875 1701.367188 2648.539063 1639.453125 2648.539063 L 1013.007813 2648.539063 C 951.132813 2648.539063 920.195313 2613.421875 920.195313 2543.265625 Z M 920.195313 2543.265625 " transform="matrix(0.1,0,0,-0.1,0,360.6)"/>
<g clip-path="url(#clip5)" clip-rule="nonzero">
<path style=" stroke:none;fill-rule:evenodd;fill:rgb(69.334412%,78.90625%,0%);fill-opacity:1;" d="M 93.59375 289.820313 L 93.59375 349.746094 C 93.59375 356.761719 96.6875 360.273438 102.878906 360.273438 L 165.523438 360.273438 C 171.710938 360.273438 174.804688 356.761719 174.804688 349.746094 L 174.804688 289.820313 C 174.804688 282.804688 171.710938 279.296875 165.523438 279.296875 L 102.878906 279.296875 C 96.6875 279.296875 93.59375 282.804688 93.59375 289.820313 Z M 93.59375 289.820313 "/>
</g>
<g clip-path="url(#clip6)" clip-rule="nonzero">
<path style="fill:none;stroke-width:5.669;stroke-linecap:butt;stroke-linejoin:miter;stroke:rgb(69.334412%,78.90625%,0%);stroke-opacity:1;stroke-miterlimit:4;" d="M 935.9375 707.796875 L 935.9375 108.539063 C 935.9375 38.382813 966.875 3.265625 1028.789063 3.265625 L 1655.234375 3.265625 C 1717.109375 3.265625 1748.046875 38.382813 1748.046875 108.539063 L 1748.046875 707.796875 C 1748.046875 777.953125 1717.109375 813.03125 1655.234375 813.03125 L 1028.789063 813.03125 C 966.875 813.03125 935.9375 777.953125 935.9375 707.796875 Z M 935.9375 707.796875 " transform="matrix(0.1,0,0,-0.1,0,360.6)"/>
</g>
<path style="fill-rule:evenodd;fill:rgb(69.334412%,78.90625%,0%);fill-opacity:1;stroke-width:5.669;stroke-linecap:butt;stroke-linejoin:miter;stroke:rgb(69.334412%,78.90625%,0%);stroke-opacity:1;stroke-miterlimit:4;" d="M 934.375 1613.890625 L 934.375 1014.671875 C 934.375 944.515625 965.3125 909.4375 1027.1875 909.4375 L 1653.671875 909.4375 C 1715.546875 909.4375 1746.484375 944.515625 1746.484375 1014.671875 L 1746.484375 1613.890625 C 1746.484375 1684.085938 1715.546875 1719.164063 1653.671875 1719.164063 L 1027.1875 1719.164063 C 965.3125 1719.164063 934.375 1684.085938 934.375 1613.890625 Z M 934.375 1613.890625 " transform="matrix(0.1,0,0,-0.1,0,360.6)"/>
<g clip-path="url(#clip7)" clip-rule="nonzero">
<path style=" stroke:none;fill-rule:evenodd;fill:rgb(69.334412%,78.90625%,0%);fill-opacity:1;" d="M 185.03125 199.210938 L 185.03125 259.132813 C 185.03125 266.148438 188.125 269.65625 194.3125 269.65625 L 256.960938 269.65625 C 263.148438 269.65625 266.242188 266.148438 266.242188 259.132813 L 266.242188 199.210938 C 266.242188 192.191406 263.148438 188.683594 256.960938 188.683594 L 194.3125 188.683594 C 188.125 188.683594 185.03125 192.191406 185.03125 199.210938 Z M 185.03125 199.210938 "/>
</g>
<g clip-path="url(#clip8)" clip-rule="nonzero">
<path style="fill:none;stroke-width:5.669;stroke-linecap:butt;stroke-linejoin:miter;stroke:rgb(69.334412%,78.90625%,0%);stroke-opacity:1;stroke-miterlimit:4;" d="M 1850.3125 1613.890625 L 1850.3125 1014.671875 C 1850.3125 944.515625 1881.25 909.4375 1943.125 909.4375 L 2569.609375 909.4375 C 2631.484375 909.4375 2662.421875 944.515625 2662.421875 1014.671875 L 2662.421875 1613.890625 C 2662.421875 1684.085938 2631.484375 1719.164063 2569.609375 1719.164063 L 1943.125 1719.164063 C 1881.25 1719.164063 1850.3125 1684.085938 1850.3125 1613.890625 Z M 1850.3125 1613.890625 " transform="matrix(0.1,0,0,-0.1,0,360.6)"/>
</g>
</g>
</svg>
